<?xml version="1.0" encoding="UTF-8" standalone="no"?>
<!-- Created with Inkscape (http://www.inkscape.org/) -->

<svg
   xmlns:dc="http://purl.org/dc/elements/1.1/"
   xmlns:cc="http://creativecommons.org/ns#"
   xmlns:rdf="http://www.w3.org/1999/02/22-rdf-syntax-ns#"
   xmlns:svg="http://www.w3.org/2000/svg"
   xmlns="http://www.w3.org/2000/svg"
   xmlns:sodipodi="http://sodipodi.sourceforge.net/DTD/sodipodi-0.dtd"
   xmlns:inkscape="http://www.inkscape.org/namespaces/inkscape"
   width="16in"
   height="12in"
   viewBox="0 0 406.40001 304.80001"
   version="1.1"
   id="svg8"
   sodipodi:docname="Tennis Rackets.svg"
   inkscape:version="0.92.1 r15371">
  <defs
     id="defs2" />
  <sodipodi:namedview
     id="base"
     pagecolor="#ffffff"
     bordercolor="#666666"
     borderopacity="1.0"
     inkscape:pageopacity="0.0"
     inkscape:pageshadow="2"
     inkscape:zoom="0.35"
     inkscape:cx="865.28197"
     inkscape:cy="560"
     inkscape:document-units="in"
     inkscape:current-layer="layer1"
     showgrid="false"
     units="in"
     inkscape:window-width="1366"
     inkscape:window-height="705"
     inkscape:window-x="-8"
     inkscape:window-y="-8"
     inkscape:window-maximized="1" />
  <metadata
     id="metadata5">
    <rdf:RDF>
      <cc:Work
         rdf:about="">
        <dc:format>image/svg+xml</dc:format>
        <dc:type
           rdf:resource="http://purl.org/dc/dcmitype/StillImage" />
        <dc:title></dc:title>
      </cc:Work>
    </rdf:RDF>
  </metadata>
  <g
     inkscape:label="Layer 1"
     inkscape:groupmode="layer"
     id="layer1"
     transform="translate(0,7.8000086)">
    <path
       style="fill:#000000;stroke-width:0.5265249"
       d="m 248.27815,268.00029 c -2.15329,-2.52046 -2.39875,-3.07723 -2.39875,-5.44105 v -2.6333 l -44.2281,-51.90297 -41.05996,49.05323 0.28087,3.06189 0.28088,3.06187 -2.52309,2.74129 -2.52309,2.7413 -19.93424,-17.6681 c 0.097,-0.94949 3.39169,-4.76714 4.40175,-5.10048 0.43439,-0.14343 1.65674,-0.4065 2.71634,-0.58475 l 46.12959,-53.37399 c -13.66678,-13.81426 -39.51095,-21.7269 -54.11117,-26.17792 -4.49507,-1.25417 -9.28129,-3.35092 -13.01072,-4.57677 C 88.917669,150.27022 59.4225,117.37767 52.054127,82.865179 50.653893,76.306665 50.363204,63.12433 51.502619,57.855242 55.464216,39.535378 66.619993,27.016359 83.183205,22.303281 c 5.632554,-1.602749 16.466222,-1.984199 23.167105,-0.815707 24.23431,4.225949 48.90206,22.750516 64.91129,48.745972 9.71822,17.319746 14.25232,35.031824 16.66297,53.437314 2.37793,18.83412 4.56761,29.8998 7.55367,38.17306 2.0705,5.73656 6.67051,15.79574 7.2233,15.79574 0.61621,0 6.66518,-13.2092 8.61758,-18.81832 2.83061,-8.13209 5.34877,-21.20329 7.43106,-38.5729 2.20825,-31.252606 17.11269,-59.582073 34.14097,-74.904992 13.58843,-13.588439 29.13187,-22.522867 45.23627,-26.00198 5.31812,-1.148901 17.55173,-1.284418 22.25525,-0.246532 14.29681,3.154756 26.23375,13.100226 31.61318,26.339085 2.8078,6.91007 3.62506,11.697088 3.60376,21.108885 -0.0221,9.779281 -0.8656,14.770837 -4.15902,24.61307 -7.29262,21.793684 -25.1682,44.111764 -46.03925,57.481034 -8.77328,6.35662 -18.63757,10.25424 -28.57559,12.65559 -22.04929,5.04135 -45.76475,13.76454 -61.66785,29.46103 l 45.38773,56.23334 3.06575,0.35574 c 2.01093,0.23332 3.33749,0.68839 3.85554,1.32259 0.43438,0.53178 1.4615,1.8175 2.2825,2.85717 l 1.49272,1.89031 -20.56522,17.3953 z m -52.21689,-83.58773 c 0.73105,-1.04373 0.58619,-1.52866 -2.00548,-6.7132 -6.8442,-14.65604 -9.13006,-24.25033 -11.72276,-38.23276 -5.55062,13.42788 -16.23705,21.95239 -28.3303,24.10759 13.96303,5.71811 26.18852,10.31019 38.17115,20.33572 2.20917,1.89988 2.85065,1.98282 3.88739,0.50265 z m 56.1282,-23.1176 c -11.60528,-0.75021 -21.25705,-10.185 -27.88758,-21.95519 -2.86892,12.70321 -6.45399,24.86684 -11.83596,36.01272 -3.11459,6.41665 -4.22139,9.19631 -3.30139,9.31951 13.82313,-9.30282 30.00881,-19.48523 43.02493,-23.37704 z m -98.32241,-5.60264 3.0254,-0.95649 -4.00062,-4.73872 c -2.20035,-2.6063 -4.08463,-4.8272 -4.18732,-4.93535 -0.10268,-0.10821 -2.45095,1.75124 -5.2184,4.13196 l -5.03172,4.32858 1.45492,1.80179 1.4549,1.80181 4.73872,-0.23855 c 2.6063,-0.13119 6.10015,-0.66896 7.76412,-1.19503 z m -21.205,-1.46758 c 1.39345,-1.48326 1.68803,-0.88232 -3.36286,-6.86026 -1.71276,-2.02713 -3.31439,-3.76542 -3.55917,-3.86289 -0.49734,-0.19804 -8.85922,6.70199 -8.85922,7.31042 0,0.79041 10.86344,4.64941 13.20298,4.69005 0.78457,0.0134 1.87126,-0.52474 2.57827,-1.27732 z m 133.70791,-4.22763 c -0.007,-0.28959 -2.19146,-2.3552 -4.85465,-4.59022 l -4.84215,-4.06369 -1.05305,1.24974 c -0.57918,0.68736 -2.54252,3.03969 -4.36297,5.2274 l -3.30991,3.97766 3.66724,1.11389 c 2.01698,0.61264 5.28344,1.29267 7.25884,1.51117 l 3.59163,0.39728 1.95875,-2.14835 c 1.07731,-1.18159 1.95313,-2.3853 1.94627,-2.67488 z m 4.78263,4.03054 c 0,-0.24471 -0.4329,-0.8367 -0.96201,-1.31553 -0.90154,-0.81589 -1.03967,-0.78793 -2.19787,0.44492 l -1.23588,1.31553 h 2.19789 c 1.20883,0 2.19787,-0.20022 2.19787,-0.44492 z m -108.3072,-2.40541 c 2.91735,-1.91435 4.83733,-3.54441 6.36883,-5.4072 0.9338,-1.13579 0.89318,-1.21079 -3.42263,-6.31829 -2.4022,-2.84288 -4.42985,-5.25891 -4.50588,-5.36896 -0.21745,-0.31478 -10.11625,8.05454 -10.01133,8.46447 0.11149,0.43557 8.40926,10.42725 8.65949,10.42725 0.0949,0 1.4051,-0.80876 2.91152,-1.79727 z m 119.10096,-0.0687 c 4.8604,-1.60451 7.63709,-2.79722 7.62394,-3.27482 -0.0149,-0.51865 -9.40165,-8.28571 -10.0142,-8.28571 -0.26425,0 -2.26007,2.13242 -4.43516,4.73872 l -3.95473,4.73873 2.23093,1.9439 c 2.48284,2.16341 2.42047,2.1624 8.54922,0.1391 z m -140.50831,-4.70446 c 2.56569,-2.16574 4.66489,-4.16198 4.66489,-4.43611 0,-0.7888 -7.65079,-9.61112 -8.17672,-9.42878 -1.22446,0.4245 -9.40339,7.61208 -9.30748,8.17935 0.12432,0.7352 7.30368,9.54445 7.81732,9.59201 0.18539,0.0172 2.43629,-1.74074 5.00199,-3.90647 z m 109.70208,-3.7459 3.09988,-3.73467 -4.81408,-4.03159 c -2.64776,-2.21736 -4.98233,-4.03157 -5.18795,-4.03157 -0.20563,0 -2.32104,2.26347 -4.70092,5.02993 l -4.32705,5.02994 1.55723,1.94652 c 0.85648,1.07058 3.07169,3.10056 4.92271,4.51107 l 3.36548,2.56456 1.4924,-1.77478 c 0.82082,-0.97612 2.88736,-3.45536 4.5923,-5.50941 z m -131.75938,1.18013 4.34277,-3.61212 -2.69795,-3.23497 c -5.06484,-6.07302 -5.72047,-6.72158 -6.38976,-6.32081 -1.13351,0.67878 -9.33854,7.66242 -9.33854,7.94842 0,0.15056 1.83625,2.46552 4.08057,5.14436 3.34769,3.99585 4.22241,4.76435 4.87035,4.27892 0.43439,-0.32542 2.74403,-2.21714 5.13256,-4.2038 z m 153.87074,-2.07897 c 2.20802,-2.65686 3.64859,-4.82288 3.37691,-5.07749 -1.79746,-1.68442 -9.43427,-7.92112 -9.66556,-7.89352 -0.15713,0.0188 -2.10011,2.2319 -4.31773,4.91811 l -4.03202,4.88402 5.08507,4.26562 c 2.79679,2.34611 5.22402,4.10164 5.39385,3.90121 0.16982,-0.20046 2.04159,-2.44953 4.15948,-4.99795 z m 22.83137,-1.75468 c 2.2729,-2.75205 4.04991,-5.06128 3.94894,-5.13163 -0.10104,-0.0703 -2.39219,-1.98018 -5.09158,-4.24408 -2.6994,-2.26387 -5.08923,-3.90799 -5.31076,-3.65358 -3.1977,3.67249 -8.04119,9.75512 -7.88562,9.90307 1.40223,1.33344 9.74766,8.18208 9.94323,8.15985 0.14477,-0.0164 2.1229,-2.28161 4.39579,-5.03363 z m -191.61108,2.7025 c -1.44713,-1.89729 -2.04519,-2.20903 -2.57947,-1.34456 -0.24191,0.39141 3.10658,3.1874 3.81724,3.1874 0.0923,0 -0.46469,-0.82929 -1.23777,-1.84284 z m 196.33728,-0.58827 c 2.07783,-1.33714 3.89633,-2.54221 4.04114,-2.67794 0.14477,-0.13567 -0.31964,-0.71932 -1.03206,-1.29686 l -1.2953,-1.05007 -1.48065,1.75355 c -3.43873,4.07256 -4.68435,5.7025 -4.35794,5.7025 0.19082,0 2.04698,-1.09404 4.12481,-2.43118 z m -126.37322,-4.28202 c 1.05021,-2.2443 2.1918,-5.31291 2.5369,-6.8191 l 0.62743,-2.73855 -1.98598,-2.42362 c -1.75331,-2.13968 -2.08703,-2.33815 -2.84875,-1.69412 -7.06196,5.97099 -8.76064,7.49814 -8.76064,7.87604 0,0.59353 7.65186,9.87992 8.14092,9.87992 0.20937,0 1.23993,-1.83625 2.29012,-4.08057 z m -74.00755,0.29971 c -0.24356,-0.67145 -7.959823,-9.90909 -8.261063,-9.88986 -0.16299,0.0104 -0.99571,0.59053 -1.85049,1.28915 -1.553126,1.26936 -1.553469,1.27096 -0.526524,2.42903 0.565189,0.63735 2.767634,2.65165 4.894334,4.47624 3.37413,2.8948 3.99475,3.23745 4.87173,2.68977 0.552753,-0.3452 0.945163,-0.79264 0.872013,-0.99433 z m 53.3317,-2.06703 c 2.44917,-2.058 4.65544,-3.9308 4.90282,-4.1618 0.41949,-0.39171 -7.30842,-10.0121 -8.02212,-9.98665 -0.61073,0.0218 -9.63485,7.77024 -9.57788,8.22393 0.0746,0.5948 7.51239,9.66632 7.92537,9.66632 0.17532,0 2.32264,-1.68383 4.77181,-3.7418 z m -21.71952,-2.8131 c 2.08738,-1.7229 3.79523,-3.34117 3.79523,-3.59616 0,-0.51359 -7.80971,-9.85685 -8.23899,-9.85685 -0.60268,0 -9.70103,8.04421 -9.55613,8.44895 0.0861,0.24053 1.90987,2.57353 4.05281,5.18447 3.82383,4.65891 3.91724,4.73048 5.02406,3.84964 0.62029,-0.49363 2.83564,-2.30716 4.92302,-4.03005 z m 105.47012,0.23664 c 1.58163,-1.88233 3.1633,-3.80137 3.51482,-4.26454 0.54587,-0.71923 -0.0581,-1.43004 -4.13831,-4.87037 -2.62759,-2.21551 -4.97528,-4.02821 -5.21711,-4.02821 -0.24182,0 -1.07185,0.7513 -1.84451,1.66955 -1.15985,1.3784 -1.34714,1.99819 -1.07404,3.55405 0.48389,2.75671 1.81034,6.75642 3.30464,9.96463 1.06107,2.27808 1.43199,2.67972 1.94497,2.1061 0.34862,-0.38983 1.92791,-2.24887 3.50954,-4.13121 z m 75.21959,-0.30521 c 2.61614,-2.19497 4.75661,-4.19048 4.75661,-4.43443 0,-0.24395 -1.00646,-1.30505 -2.23658,-2.35799 l -2.2366,-1.91444 -1.05419,1.29007 c -0.5798,0.70952 -2.45017,2.98238 -4.15636,5.05077 l -3.10217,3.76074 1.21948,1.29809 c 0.67072,0.71394 1.40707,1.29808 1.63633,1.29808 0.22928,0 2.55733,-1.7959 5.17348,-3.99089 z m -51.8885,-2.04626 c 1.90635,-2.30687 3.4661,-4.34227 3.4661,-4.5231 0,-0.32216 -7.98988,-7.21823 -9.27345,-8.00394 -0.4298,-0.26308 -2.01098,1.20277 -4.64018,4.3017 -2.19351,2.58544 -3.97188,4.89744 -3.95191,5.13781 0.02,0.24035 2.21162,2.25653 4.87035,4.48037 3.70166,3.09619 4.97799,3.89789 5.44851,3.42242 0.33795,-0.34153 2.17421,-2.50839 4.08058,-4.81526 z m -152.63573,0.73382 4.96904,-4.25028 -4.0705,-4.92983 c -2.23876,-2.7114 -4.18895,-4.93993 -4.33375,-4.9523 -0.50513,-0.0431 -9.740713,7.88125 -9.740713,8.35781 0,0.43338 7.683403,9.98873 8.052383,10.01422 0.085,0.006 2.39057,-1.90197 5.12354,-4.23962 z m 173.21043,0.16972 c 1.13431,-1.37556 2.98632,-3.6119 4.11559,-4.96966 l 2.05321,-2.46865 -1.76635,-1.54552 c -0.97151,-0.85005 -3.22507,-2.76209 -5.00792,-4.24899 l -3.24157,-2.70345 -4.33776,5.04239 -4.33776,5.04238 2.03371,1.67525 c 1.11855,0.92139 3.34456,2.79139 4.94671,4.15557 1.60213,1.36419 3.0405,2.48963 3.19637,2.50099 0.15587,0.0119 1.21146,-1.10477 2.34577,-2.48031 z m 22.43524,-1.31634 c 0.75394,-0.94115 2.58912,-3.1662 4.07817,-4.94456 l 2.70738,-3.23337 -5.04107,-4.25618 -5.04108,-4.25618 -4.23509,5.037 c -3.56206,4.23652 -4.12027,5.14788 -3.51255,5.73465 1.44905,1.39914 9.11905,7.62986 9.3923,7.62985 0.15464,-1e-5 0.89801,-0.77006 1.65194,-1.71121 z M 166.52983,125.8013 c 2.54714,-2.15396 4.67956,-4.05766 4.73873,-4.23045 0.13761,-0.40162 -7.53535,-9.7468 -8.00264,-9.7468 -0.319,0 -7.80016,6.02778 -9.42617,7.5949 -0.5609,0.5406 0.0537,1.55123 3.33584,5.48483 2.2129,2.65216 4.18087,4.82024 4.37327,4.81796 0.1924,-0.002 2.43384,-1.76648 4.98097,-3.92044 z m -78.140559,1.82991 1.783646,-1.52538 -4.091059,-4.90317 c -2.25008,-2.69672 -4.251274,-4.90315 -4.447095,-4.90315 -0.19582,0 -1.126031,0.64791 -2.067141,1.4398 -1.187196,0.99896 -1.580791,1.67243 -1.28549,2.1996 0.607939,1.08528 7.743166,9.26472 8.059583,9.23906 0.145147,-0.0119 1.066544,-0.70782 2.047556,-1.54676 z m 59.145949,-6.91563 c 0.72199,-0.56323 0.94073,-1.09511 0.64962,-1.57957 -0.8263,-1.37506 -7.72332,-9.41809 -8.062,-9.40158 -0.18601,0.009 -2.51518,1.87183 -5.17592,4.1395 l -4.83773,4.123 4.22174,5.07628 4.22173,5.07629 3.94702,-3.29238 c 2.17086,-1.8108 4.43687,-3.67448 5.03554,-4.14154 z m 100.11766,1.12658 c 2.21006,-2.59851 4.01829,-4.93666 4.01829,-5.19589 0,-0.25924 -2.15694,-2.30581 -4.79319,-4.54797 -4.01136,-3.41169 -4.906,-3.95977 -5.48481,-3.36014 -0.3804,0.39409 -2.25204,2.60476 -4.15922,4.91262 -3.29885,3.99192 -3.42268,4.2404 -2.54468,5.10699 0.78449,0.7743 8.70161,7.71204 8.88305,7.78421 0.0343,0.0134 1.87051,-2.1013 4.08056,-4.69982 z m 77.19996,-0.25419 3.94367,-4.63087 -2.36408,-2.03858 c -1.30025,-1.12122 -2.60102,-2.02565 -2.89061,-2.00985 -0.28959,0.0158 -2.28897,2.17819 -4.44306,4.80531 l -3.91653,4.77659 2.22497,2.07541 c 1.22372,1.14149 2.51228,1.98035 2.86347,1.86415 0.35119,-0.11627 2.41317,-2.29519 4.58217,-4.84216 z m -203.85838,0.0245 c 2.37091,-2.0009 4.31074,-3.84354 4.31074,-4.0947 0,-0.25119 -1.80977,-2.58457 -4.02173,-5.18532 -3.47185,-4.08209 -4.13768,-4.6381 -4.86971,-4.06642 -3.40585,2.65969 -9.0104,7.46939 -9.0104,7.73249 0,0.17643 1.80492,2.50415 4.01093,5.17274 2.56257,3.09987 4.23817,4.71244 4.64018,4.4656 0.34608,-0.2125 2.56907,-2.02347 4.93999,-4.02439 z m 57.48976,0.69827 c 0,-2.22196 -0.71339,-2.57283 -1.78309,-0.87703 -0.40582,0.64338 -0.29557,1.1316 0.43888,1.94313 0.5395,0.59614 1.06264,1.08388 1.16255,1.08388 0.0998,0 0.18166,-0.96749 0.18166,-2.14998 z m 92.11372,-2.364 c 2.11401,-2.48269 3.87367,-4.80725 3.91035,-5.1657 0.0551,-0.53811 -2.70223,-3.10319 -8.6881,-8.08237 -0.7563,-0.62911 -1.32835,-0.14791 -4.87036,4.09727 -2.20738,2.64555 -4.01341,5.0083 -4.01341,5.25055 0,0.4447 8.95623,8.33922 9.51603,8.38795 0.16601,0.0149 2.03149,-2.00501 4.14549,-4.4877 z m -173.299383,0.17014 c 2.47679,-2.09951 4.728473,-3.96896 5.003733,-4.15431 0.27526,-0.18536 -1.44858,-2.61569 -3.830763,-5.4007 l -4.33123,-5.06369 -3.240813,2.70283 c -1.782448,1.48656 -4.035677,3.39832 -5.007175,4.24836 l -1.766359,1.54553 2.053207,2.46866 c 1.129265,1.35775 2.981278,3.5941 4.115591,4.96964 1.134309,1.37555 2.160969,2.50099 2.281469,2.50099 0.12049,0 2.24555,-1.71778 4.72234,-3.81731 z m 196.015723,-1.84347 c 1.85612,-2.24465 3.6777,-4.46875 4.04796,-4.94242 0.58631,-0.75007 0.0296,-1.41177 -4.3135,-5.1266 l -4.98669,-4.26538 -3.95614,4.66295 c -2.17588,2.56463 -4.02579,4.91192 -4.11089,5.2162 -0.14373,0.51393 8.89555,8.53645 9.6184,8.53645 0.17936,0 1.84473,-1.83654 3.70086,-4.08122 z m 23.53812,-2.63199 c 2.0762,-2.53391 3.81014,-4.82223 3.8532,-5.08515 0.0812,-0.49562 -8.95604,-8.2096 -9.61783,-8.2096 -0.20588,0 -2.20031,2.1522 -4.43205,4.78269 -3.97369,4.68364 -4.03712,4.8031 -3.06326,5.76848 2.31059,2.29049 8.40975,7.29306 8.92542,7.32068 0.3078,0.0164 2.25833,-2.0432 4.33452,-4.5771 z m -140.44341,1.88634 c 2.41888,-1.94386 2.50076,-2.57067 1.26914,-9.71525 -0.95692,-5.55115 -1.2262,-6.5189 -1.81389,-6.5189 -0.49581,0 -10.01662,7.84006 -10.01662,8.24834 0,0.36806 7.91404,9.65352 8.22775,9.65352 0.14209,0 1.19225,-0.75047 2.33362,-1.66771 z m -15.4684,-8.43557 c -0.15233,-0.58161 -7.89651,-9.905154 -8.22301,-9.89999 -0.16298,0.003 -1.62844,1.14504 -3.25657,2.53881 -1.62811,1.39378 -3.85413,3.27097 -4.94669,4.17157 l -1.98647,1.6374 4.32583,5.02854 4.32584,5.02853 4.928,-4.07116 c 2.7104,-2.23912 4.88527,-4.2343 4.83307,-4.4337 z m -83.037683,5.97794 1.788012,-1.49269 -4.223853,-5.02364 -4.223854,-5.02365 -1.244856,0.939 c -1.111538,0.83844 -1.176296,1.08946 -0.604705,2.34396 0.965551,2.11916 5.940951,9.74973 6.357165,9.74973 0.200247,0 1.168689,-0.67172 2.152091,-1.49271 z M 238.14374,104.7755 c -0.81319,-0.68217 -2.93938,-2.45927 -4.72487,-3.94912 l -3.24635,-2.708808 -0.56242,2.509438 c -0.30934,1.38018 -0.85449,4.72762 -1.21147,7.43875 l -0.64903,4.92932 1.71435,1.53177 1.71436,1.53178 4.22199,-5.0214 4.22197,-5.02142 z m -104.2387,6.01155 c 2.22021,-1.87352 4.03676,-3.54011 4.03676,-3.70356 0,-0.28414 -6.18353,-7.910145 -7.62385,-9.402299 -0.57879,-0.599646 -1.47345,-0.05149 -5.4848,3.360139 -2.63627,2.24214 -4.7932,4.30133 -4.7932,4.57593 0,0.27462 1.79427,2.61414 3.98724,5.19893 3.52441,4.15409 4.09484,4.62287 4.91417,4.03845 0.5098,-0.36365 2.74346,-2.19407 4.96368,-4.06759 z m 124.31195,-1.55345 c 2.19158,-2.58313 3.98468,-4.90046 3.98468,-5.14964 0,-0.39862 -6.58285,-6.201668 -8.9606,-7.899101 -0.76793,-0.548229 -1.41023,0.0045 -4.78253,4.112901 -2.1425,2.6104 -3.96485,4.93981 -4.04967,5.17646 -0.12925,0.36056 9.10361,8.45597 9.64403,8.45597 0.0987,0 1.97252,-2.11347 4.16409,-4.69659 z m 75.18921,1.14255 c 1.27871,-1.95473 2.77024,-4.31972 3.31451,-5.25555 l 0.98961,-1.70152 -1.52261,-1.58927 c -0.83745,-0.87409 -1.70078,-1.58926 -1.91851,-1.58926 -0.43166,0 -7.97853,8.69842 -8.28008,9.54346 -0.21516,0.60301 3.57584,4.09175 4.48158,4.12426 0.33582,0.0119 1.65679,-1.57739 2.9355,-3.53212 z m -223.32809,-0.95721 c 2.58312,-2.19157 4.69659,-4.18751 4.69659,-4.43541 0,-0.24791 -1.8151,-2.60344 -4.03357,-5.234524 -3.51386,-4.16742 -4.14138,-4.694292 -4.87035,-4.089198 -4.89179,4.060467 -8.762853,7.433332 -8.886183,7.742552 -0.15503,0.3887 7.665343,10.00126 8.136593,10.00126 0.14318,0 2.37379,-1.7931 4.95692,-3.98468 z m 171.27237,-2.31946 c 2.21006,-2.59853 4.00294,-4.90865 3.98419,-5.13363 -0.0188,-0.22497 -2.24814,-2.237097 -4.95421,-4.471402 l -4.92014,-4.062347 -4.05864,4.932795 c -2.23226,2.713054 -3.97616,5.133464 -3.87534,5.378684 0.23094,0.56168 9.03958,8.06262 9.48031,8.07289 0.17905,0.005 2.13377,-2.11849 4.34383,-4.71699 z M 87.147329,107.3059 c 2.597946,-2.19537 4.653508,-4.24173 4.567918,-4.54744 -0.0856,-0.30571 -1.943435,-2.64621 -4.128527,-5.201117 l -3.972891,-4.645278 -4.969074,4.250299 c -4.327537,3.701566 -4.882161,4.361496 -4.295879,5.111526 2.714744,3.47297 7.481241,9.02363 7.748826,9.02363 0.179349,0 2.451681,-1.79622 5.049627,-3.99162 z m 216.985291,-1.93178 c 2.02441,-2.38911 3.8378,-4.60846 4.02975,-4.9319 0.32408,-0.546067 -8.6556,-8.626121 -9.58654,-8.626121 -0.32798,0 -4.82551,5.186328 -7.82617,9.024781 -0.58771,0.7518 -0.0584,1.3762 4.12869,4.86972 2.64155,2.20404 4.97624,4.00735 5.18819,4.00735 0.21194,0 2.04168,-1.95472 4.06608,-4.34383 z m 23.84717,-2.99613 c 2.05331,-2.444241 3.55331,-4.597144 3.33333,-4.78423 -4.09971,-3.486731 -9.54597,-7.883759 -9.765,-7.883759 -0.39714,0 -8.28152,9.493522 -8.23897,9.92047 0.019,0.190713 2.21067,2.158229 4.87036,4.372249 3.65544,3.04294 4.98605,3.87829 5.45138,3.42242 0.33858,-0.33169 2.29559,-2.60291 4.3489,-5.04715 z m -159.2135,0.44851 4.97902,-4.258817 -1.44786,-1.722268 c -0.79631,-0.947268 -2.63252,-3.163722 -4.08047,-4.925467 -1.44794,-1.761746 -2.76119,-3.216646 -2.91832,-3.233094 -0.23041,-0.02418 -7.86376,6.211341 -9.65374,7.885894 -0.36021,0.336964 7.34066,10.462562 7.98784,10.502942 0.0849,0.006 2.39507,-1.90684 5.13353,-4.24919 z m -24.40289,-0.8748 c 2.0036,-1.66514 4.26227,-3.542671 5.01924,-4.172316 l 1.3763,-1.144816 -3.86207,-4.646965 c -2.12414,-2.555836 -4.04331,-4.855125 -4.26483,-5.109523 -0.22152,-0.254414 -2.61136,1.389707 -5.31076,3.653578 -2.6994,2.263901 -4.99062,4.173734 -5.09159,4.244076 -0.19375,0.135072 7.93464,10.110856 8.28613,10.169406 0.11254,0.0188 1.84397,-1.32831 3.84758,-2.99344 z m 98.83308,-0.26325 c 0.8234,-0.94118 2.71183,-3.167736 4.19651,-4.947944 l 2.6994,-3.236705 -5.04211,-4.272598 -5.04212,-4.272583 -4.15599,4.876677 c -2.28578,2.682178 -4.16339,5.023316 -4.17246,5.202522 -0.0151,0.297084 9.49667,8.361821 9.86208,8.361821 0.0867,0 0.83128,-0.77003 1.65469,-1.71119 z M 123.08697,98.487879 c 2.39984,-2.012368 4.29533,-3.848352 4.2122,-4.079945 -0.0831,-0.231578 -1.90946,-2.563403 -4.05853,-5.18182 -3.33321,-4.061139 -4.02957,-4.666174 -4.73872,-4.117198 -0.45723,0.353949 -2.78157,2.282871 -5.16521,4.286478 l -4.33387,3.642907 2.98243,3.469463 c 4.91921,5.722576 5.55799,6.342946 6.16079,5.983446 0.31766,-0.18944 2.54109,-1.99095 4.94091,-4.003331 z m -54.658166,3.083031 c 0.529801,-0.63837 0.201739,-1.29306 -1.853291,-3.698498 -1.373373,-1.607554 -2.595743,-2.82413 -2.716371,-2.703506 -0.362138,0.362143 2.895594,7.177694 3.430828,7.177694 0.272292,0 0.784765,-0.34905 1.138834,-0.77569 z M 268.75447,96.686462 c 2.17401,-2.533911 3.95547,-4.844035 3.95878,-5.133627 0.004,-0.411993 -9.26191,-8.424392 -9.74313,-8.424392 -0.26531,0 -8.13184,9.505462 -8.13565,9.830666 -0.006,0.433947 9.06111,8.301121 9.58863,8.320531 0.20823,0.007 2.15735,-2.059281 4.33137,-4.593178 z M 99.661167,96.84243 c 2.547123,-2.153963 4.648203,-4.070512 4.669033,-4.259016 0.0209,-0.188504 -1.78849,-2.562493 -4.02075,-5.275536 l -4.058653,-4.93281 -4.92013,4.062362 c -2.706077,2.23429 -4.935475,4.259822 -4.954226,4.501176 -0.04046,0.520976 7.848146,9.830294 8.324986,9.824274 0.18073,-0.001 2.4126,-1.766488 4.95974,-3.92045 z M 343.07917,91.947738 c 0.94364,-2.389108 1.62936,-4.343835 1.52379,-4.343835 -0.41103,0 -8.16129,9.423837 -8.16129,9.923634 0,0.291741 0.64007,1.033908 1.42238,1.64927 l 1.42236,1.118833 1.03851,-2.002041 c 0.57118,-1.101116 1.81059,-3.956753 2.75425,-6.345861 z m -51.16458,2.54312 c 2.19156,-2.583134 3.98466,-4.804185 3.98466,-4.93569 0,-0.510663 -9.51343,-8.343916 -9.9346,-8.180038 -0.3648,0.141938 -3.47379,3.688444 -7.81512,8.914935 -0.61315,0.738167 -0.0931,1.34541 4.17093,4.870349 2.67928,2.214872 5.03748,4.027035 5.24045,4.027035 0.20295,0 2.16211,-2.113471 4.35368,-4.696591 z M 76.832778,94.653572 c 4.187002,-3.493522 4.716396,-4.117914 4.128688,-4.869722 -3.000679,-3.838441 -7.498199,-9.024769 -7.826177,-9.024769 -0.930946,0 -9.910619,8.080039 -9.586538,8.626104 0.765554,1.289948 7.735533,9.275736 8.095839,9.275736 0.211942,0 2.546629,-1.803298 5.188188,-4.007349 z m 238.065072,-2.130486 4.34927,-5.084777 -1.34986,-1.101892 c -0.74243,-0.606034 -3.04527,-2.500374 -5.11743,-4.209643 -2.17128,-1.791014 -3.95626,-2.906443 -4.21291,-2.632612 -0.24494,0.261324 -2.13076,2.480898 -4.19071,4.932393 -3.56616,4.243986 -3.70113,4.500937 -2.82038,5.37025 0.89216,0.880582 8.73483,7.735852 8.9078,7.786298 0.0467,0.01343 2.04211,-2.263378 4.43422,-5.060017 z m 22.7908,-1.74588 c 2.21005,-2.598522 4.01827,-4.938049 4.01827,-5.198955 0,-0.260906 -2.15067,-2.313751 -4.77929,-4.561876 -4.04549,-3.45991 -4.8876,-3.975349 -5.4848,-3.357076 -2.09289,2.166723 -7.62684,9.186005 -7.51037,9.526178 0.10268,0.299891 9.36046,8.245962 9.67562,8.304692 0.0343,0.006 1.8705,-2.114456 4.08057,-4.712963 z M 157.84892,90.631388 c 2.4768,-2.099516 4.73312,-3.971842 5.01408,-4.160719 0.28095,-0.188878 -1.34674,-2.55824 -3.61707,-5.265253 -2.27035,-2.706998 -4.19111,-5.010077 -4.26834,-5.117941 -0.21324,-0.297756 -9.9277,7.908654 -9.9277,8.386542 0,0.459589 7.6922,9.974678 8.06374,9.974678 0.12761,0 2.25852,-1.717791 4.73529,-3.817307 z m 14.57069,-1.246412 c -0.97968,-2.495464 -1.90995,-4.665919 -2.06728,-4.823259 -0.30547,-0.305473 -2.39861,1.401632 -2.39861,1.956234 0,0.365755 5.75999,7.404216 6.05933,7.404216 0.10328,0 -0.61377,-2.041741 -1.59344,-4.537191 z M 135.1874,88.324592 c 2.67327,-2.209902 4.85309,-4.164615 4.84401,-4.343821 -0.009,-0.179205 -1.88195,-2.514762 -4.16197,-5.190134 l -4.1455,-4.864304 -5.04981,4.263553 -5.0498,4.263554 2.70737,3.233377 c 1.48906,1.778357 3.32424,4.003408 4.07818,4.944556 0.75393,0.941148 1.49369,1.711194 1.6439,1.711209 0.15022,1.5e-5 2.46036,-1.808088 5.13362,-4.01799 z m 121.22249,-2.344467 c 2.17192,-2.61885 3.92075,-4.902363 3.88628,-5.074465 -0.0892,-0.445619 -9.30742,-8.044487 -9.75876,-8.044487 -0.20589,0 -2.19944,2.151201 -4.43013,4.780424 -3.4457,4.061318 -3.9461,4.888662 -3.32653,5.49995 2.27376,2.24329 8.70609,7.574048 9.15368,7.586033 0.28959,0.0075 2.30354,-2.12859 4.47546,-4.747455 z m -144.03893,0.143729 c 2.48042,-2.117173 4.50643,-4.012662 4.50225,-4.212196 -0.006,-0.320905 -7.14606,-8.943263 -7.93826,-9.587222 -0.38037,-0.309174 -9.940513,7.465065 -9.949553,8.090904 -0.0119,0.83212 7.624193,9.778652 8.251953,9.667953 0.34309,-0.06045 2.65321,-1.842252 5.13361,-3.959439 z m 168.34821,-3.720846 c 1.39377,-1.628121 2.53624,-3.123469 2.53881,-3.322988 0.006,-0.507006 -8.8754,-8.03701 -9.63877,-8.171635 -0.72708,-0.128206 -8.43028,9.101858 -8.17027,9.789742 0.0963,0.254831 2.30756,2.245229 4.91386,4.423087 l 4.73872,3.959738 1.54175,-1.858864 c 0.84797,-1.02237 2.68212,-3.190959 4.0759,-4.81908 z m -191.346615,1.715373 4.853322,-4.012065 -2.7026,-3.227646 c -1.486432,-1.775208 -3.319457,-3.997692 -4.073392,-4.93884 -0.753934,-0.941163 -1.554862,-1.711209 -1.779833,-1.711209 -0.450988,-1.5e-5 -9.858194,7.894132 -9.858194,8.272588 0,0.432888 7.963518,9.629237 8.338366,9.629237 0.202957,0 2.553009,-1.805417 5.222331,-4.012065 z M 302.65796,81.747855 c 2.07448,-2.496868 3.7718,-4.650741 3.7718,-4.786365 0,-0.13567 -1.83654,-1.765253 -4.08122,-3.62137 -6.56927,-5.43218 -5.89685,-5.063088 -6.89383,-3.783965 -0.47947,0.615154 -2.35051,2.891219 -4.15785,5.057913 l -3.2861,3.939439 5.06909,4.295448 c 2.78802,2.362512 5.23499,4.10269 5.43772,3.867068 0.20271,-0.235623 2.0659,-2.471301 4.14039,-4.968168 z M 70.788743,78.160633 c 0.316638,-0.512319 -7.562596,-9.774892 -8.315047,-9.774892 -0.372013,0 -1.432563,0.63628 -2.356773,1.413947 -2.005735,1.687717 -2.159025,3.581177 -0.849001,10.487043 1.33052,7.013938 1.103049,6.936387 6.587471,2.245827 2.603273,-2.226454 4.823282,-4.193823 4.93335,-4.371925 z M 237.11578,82.74227 c -0.49376,-0.798911 -1.06063,-0.37153 -1.93263,1.45708 -1.26793,2.658894 -1.07971,2.88101 0.66154,0.780658 0.8363,-1.008759 1.40828,-2.015741 1.27109,-2.237738 z m 88.45247,-2.842861 c 2.27288,-2.752042 4.04991,-5.060674 3.94893,-5.130329 -0.10104,-0.0697 -2.39103,-1.992354 -5.08902,-4.272702 l -4.90542,-4.146062 -1.14961,1.382329 c -0.63228,0.760285 -2.54979,3.067847 -4.26113,5.127931 l -3.11152,3.745606 2.04137,1.681553 c 1.12276,0.92485 3.35221,2.797698 4.95436,4.161884 1.60214,1.364185 3.03146,2.4743 3.17625,2.466897 0.14477,-0.0075 2.1229,-2.26508 4.39579,-5.017107 z m -158.30662,2.873995 c 0.67024,-0.629661 1.21862,-1.363961 1.21862,-1.631763 0,-0.682436 -5.67356,-10.25133 -6.31224,-10.646039 -0.73767,-0.455918 -4.8342,2.95274 -4.52305,3.763561 0.31051,0.809195 7.76434,9.659072 8.13538,9.659072 0.14447,0 0.81104,-0.515185 1.48129,-1.144831 z m 180.16473,-6.225519 c 1.09563,-6.634244 0.92427,-7.57446 -1.79458,-9.847145 -1.31639,-1.10037 -2.60718,-2.000673 -2.86841,-2.000673 -0.49607,0 -8.4278,9.201267 -8.4278,9.776749 0,0.181326 2.16547,2.155545 4.81216,4.387178 l 4.81217,4.057497 1.4338,-1.373678 c 1.10304,-1.056772 1.57195,-2.2102 2.03266,-4.999928 z m -200.93031,2.236722 c 2.01821,-1.665135 4.26319,-3.512416 4.98883,-4.105063 l 1.31937,-1.077563 -4.2954,-5.108727 -4.29539,-5.108728 -4.97689,4.256986 c -4.35913,3.728597 -4.8954,4.36866 -4.3205,5.156736 1.26121,1.728881 7.47958,9.013874 7.69412,9.013874 0.11895,0 1.86764,-1.362379 3.88586,-3.027515 z m 97.4578,-3.39603 c 3.83537,-4.639592 3.96629,-4.886035 3.10247,-5.840556 -2.11926,-2.341749 -2.53566,-2.18778 -5.04743,1.866356 -3.65827,5.904644 -4.41912,7.721702 -3.48157,8.314707 0.42378,0.26804 0.91715,0.490976 1.09634,0.495409 0.17922,0.0045 2.1278,-2.171724 4.33019,-4.835916 z m -119.13304,0.33277 c 2.58312,-2.191574 4.69659,-4.106019 4.69659,-4.254315 0,-0.472156 -7.95261,-9.66285 -8.36114,-9.66285 -0.63717,0 -9.64258,7.741705 -9.57969,8.235398 0.0928,0.728718 7.56141,9.666444 8.07754,9.666444 0.25854,0 2.58356,-1.793103 5.1667,-3.984677 z m 141.9252,-2.104083 c 2.27883,-2.769639 4.02947,-5.198239 3.89032,-5.396881 -0.47875,-0.683427 -9.22482,-7.980616 -9.57427,-7.988194 -0.43691,-0.0094 -8.35058,9.438292 -8.30327,9.912881 0.0248,0.249265 9.21369,8.217097 9.77503,8.476122 0.0379,0.01746 1.93336,-2.234289 4.21219,-5.003928 z M 104.63909,71.336109 c 0.94115,-0.753942 1.71119,-1.573002 1.7112,-1.820162 2e-5,-0.49573 -6.31703,-8.197864 -7.590383,-9.254646 -0.67382,-0.559217 -1.55265,-0.025 -5.58052,3.392334 -2.629424,2.230845 -4.710316,4.252869 -4.624218,4.493392 0.0861,0.240521 1.910634,2.574466 4.054508,5.18654 l 3.89797,4.749232 3.21012,-2.687954 c 1.765573,-1.478362 3.980163,-3.304793 4.921323,-4.058736 z m 186.12655,-0.977684 c 1.66514,-2.018216 3.02752,-3.795297 3.02752,-3.949068 0,-0.285472 -8.18479,-7.263873 -9.30507,-7.933561 -0.68394,-0.408841 -8.79762,8.788288 -8.50672,9.642648 0.0952,0.279798 2.30564,2.303323 4.91193,4.496718 l 4.73873,3.988006 1.05304,-1.287635 c 0.57918,-0.708182 2.41544,-2.938889 4.08057,-4.957108 z M 79.09307,71.390959 83.690592,67.479724 82.25222,65.768941 c -0.791107,-0.940933 -2.623058,-3.152214 -4.071,-4.913965 -1.447943,-1.761748 -2.833342,-3.21664 -3.078662,-3.233088 -0.594449,-0.03987 -9.752491,7.482581 -9.791048,8.042396 -0.05858,0.850427 8.120071,10.262492 8.648219,9.952453 0.294696,-0.172997 2.604703,-2.074606 5.133341,-4.225778 z m 233.65498,-1.712702 c 2.17192,-2.614298 3.94895,-4.944445 3.94895,-5.178113 0,-0.44416 -9.28177,-8.492273 -9.74071,-8.446069 -0.14478,0.01463 -2.11282,2.266165 -4.37339,5.003524 l -4.11014,4.97702 1.72366,1.438821 c 0.94801,0.791357 3.15297,2.670675 4.89991,4.176246 1.74694,1.505586 3.29474,2.747415 3.43953,2.759624 0.14477,0.01194 2.04029,-2.116769 4.21219,-4.731053 z m 23.37761,-2.398954 c 2.38392,-2.866498 3.9572,-5.190976 3.68567,-5.445429 -2.4,-2.24907 -9.46878,-7.908561 -9.74392,-7.801301 -1.00433,0.391529 -8.44857,10.005436 -8.04601,10.391041 1.6014,1.533893 9.39643,7.906314 9.64418,7.884105 0.16535,-0.01492 2.17239,-2.277617 4.46008,-5.028416 z m -178.19493,1.93958 2.35033,-2.031317 -4.1095,-5.057324 c -4.52132,-5.564143 -3.99185,-5.404482 -7.64601,-2.30569 -1.07194,0.909026 -1.55432,1.688175 -1.30391,2.106098 0.79047,1.319238 7.69074,9.350595 8.02055,9.335267 0.186,-0.009 1.39584,-0.929805 2.68854,-2.047034 z m -20.54759,-4.050704 c 4.18701,-3.493515 4.7164,-4.117925 4.12869,-4.869715 -3.00068,-3.838453 -7.4982,-9.024784 -7.82618,-9.024784 -0.22136,0 -2.55232,1.8127 -5.17992,4.028223 -4.10824,3.463967 -4.68544,4.146094 -4.12062,4.869717 2.91876,3.739379 7.47983,9.003907 7.80078,9.003907 0.21694,0 2.5557,-1.803306 5.19725,-4.007348 z m 116.52548,-1.652793 c 2.13868,-2.533902 4.04795,-4.876902 4.24281,-5.206669 0.20162,-0.341196 -0.4518,-1.214423 -1.51627,-2.026332 -1.83093,-1.396515 -1.8939,-1.406127 -2.97082,-0.453475 -0.60512,0.535306 -2.49998,2.724416 -4.21081,4.864685 l -3.11055,3.8914 1.71434,1.768741 c 0.94288,0.972808 1.77022,1.768744 1.83856,1.768744 0.0684,0 1.87406,-2.073191 4.01274,-4.607094 z M 115.72391,62.067441 c 1.76176,-1.44794 3.21664,-2.788672 3.23309,-2.979393 0.0363,-0.420606 -7.8451,-9.920467 -8.23032,-9.920467 -0.41172,0 -9.39305,7.565049 -9.61938,8.102482 -0.10838,0.25733 1.64898,2.678718 3.90524,5.380858 l 4.10228,4.912986 1.70295,-1.43192 c 0.93664,-0.787556 3.14439,-2.616601 4.90614,-4.064546 z m -56.048403,4.034401 c 0.818746,-0.904706 0.810888,-1.026199 -0.120938,-1.869495 -0.958177,-0.867136 -1.005011,-0.829833 -1.214851,0.967588 -0.245469,2.10262 0.06155,2.30992 1.335789,0.901907 z m 217.487053,-4.87231 c 2.1967,-2.632764 3.99401,-4.986044 3.99401,-5.229508 0,-0.243465 -2.15222,-2.268636 -4.7827,-4.500382 -5.49005,-4.657854 -4.26162,-4.880407 -9.90782,1.795 -1.79745,2.125089 -3.19608,4.055872 -3.10808,4.290627 0.13074,0.348851 9.43635,8.413189 9.72402,8.426967 0.0476,0.0024 1.88386,-2.149936 4.08057,-4.782704 z M 91.738597,60.798771 c 2.24466,-1.856123 4.08121,-3.59287 4.08121,-3.859432 0,-0.601696 -7.834083,-9.882229 -8.328509,-9.866252 -0.424954,0.01373 -9.629811,7.633965 -9.752433,8.073543 -0.0463,0.165947 1.793568,2.555643 4.088583,5.310439 3.560334,4.273607 4.294362,4.913887 5.001344,4.362592 0.455732,-0.355366 2.665142,-2.164764 4.909805,-4.02089 z m 256.369533,0.742866 c -0.0992,-1.593132 -0.35082,-2.896605 -0.55914,-2.896605 -0.20833,0 -0.92509,0.738914 -1.5928,1.642036 l -1.214,1.642034 1.50989,1.234916 c 0.83044,0.679204 1.62835,1.24376 1.77315,1.254569 0.14478,0.01075 0.18209,-1.283819 0.0828,-2.87695 z m -47.80248,-2.491854 c 2.20991,-2.673275 4.01801,-4.988682 4.01801,-5.145351 0,-0.263781 -6.99321,-6.287977 -8.99968,-7.752639 -0.76909,-0.561413 -1.41729,-0.02122 -4.92877,4.107466 -2.22376,2.61464 -3.96136,4.999457 -3.86132,5.299592 0.19681,0.590405 8.89118,8.260284 9.42793,8.316998 0.17922,0.01895 2.13395,-2.152794 4.34383,-4.826066 z M 68.857469,58.408388 c 2.087384,-1.722893 3.795241,-3.345227 3.795241,-3.605187 0,-0.588914 -7.495541,-9.776347 -8.00972,-9.817672 -0.619252,-0.04977 -3.962943,7.377968 -4.820638,10.708655 l -0.799366,3.104193 1.940389,2.230605 c 1.853236,2.130415 1.988858,2.192003 3.019622,1.371268 0.593579,-0.472633 2.787092,-2.268972 4.874472,-3.991862 z M 323.31165,57.033121 c 2.1537,-2.624082 3.98066,-4.950971 4.0599,-5.170866 0.11671,-0.324066 -4.59907,-4.477929 -8.90442,-7.84333 -0.75018,-0.586386 -1.41865,-0.02151 -5.18398,4.380584 -2.37753,2.779579 -4.24059,5.131493 -4.14014,5.226478 1.41265,1.33581 9.73826,8.170996 9.95644,8.174048 0.163,0.0024 2.05849,-2.142831 4.2122,-4.766914 z m 21.49953,-0.21845 c 1.55319,-1.887266 2.06457,-2.918184 1.82827,-3.685675 -1.46651,-4.76324 -4.72908,-11.408387 -5.7223,-11.655126 -0.2896,-0.07194 -2.37196,2.102774 -4.62749,4.832697 l -4.10094,4.963494 1.73158,1.51263 c 5.06867,4.427739 8.08678,6.859471 8.39223,6.761703 0.18829,-0.06027 1.31267,-1.288641 2.49865,-2.729723 z m -197.39439,-0.15665 2.23908,-1.987007 -4.57571,-4.331291 c -2.51664,-2.382211 -4.79316,-4.331292 -5.05894,-4.331292 -0.26577,0 -1.24185,0.677824 -2.16904,1.506274 l -1.68582,1.506272 4.08261,4.812026 c 2.24544,2.646614 4.27299,4.812029 4.50567,4.812029 0.2327,0 1.43066,-0.894155 2.66215,-1.987011 z M 131.3602,48.64112 c 0.17203,-0.278342 -5.15021,-7.005654 -7.66563,-9.689387 -0.25666,-0.273823 -2.04163,0.841604 -4.21291,2.632625 -2.07216,1.709269 -4.36127,3.59266 -5.08693,4.185314 l -1.31935,1.077553 4.3042,5.119206 4.30421,5.119204 4.7276,-4.043291 c 2.60018,-2.22381 4.82714,-4.204362 4.94881,-4.401224 z m 133.4794,1.836604 4.30832,-5.008157 -1.23541,-1.029363 c -0.67946,-0.56615 -1.36732,-1.037246 -1.52857,-1.04688 -0.16126,-0.0097 -2.41215,1.976716 -5.00199,4.414115 l -4.70879,4.431632 1.84283,1.602006 c 1.01356,0.881103 1.88164,1.611635 1.92907,1.623404 0.0475,0.01179 2.02497,-2.232272 4.39454,-4.986757 z M 104.67335,49.973961 c 2.09409,-1.728406 3.69442,-3.437056 3.5563,-3.797 -0.3292,-0.857866 -7.77639,-9.645977 -8.17416,-9.645977 -0.168553,0 -2.495603,1.809678 -5.171203,4.021505 -4.202093,3.473721 -4.774825,4.137132 -4.20462,4.870355 0.363068,0.466868 2.28453,2.801847 4.26991,5.188842 3.56606,4.287431 3.62375,4.32888 4.76306,3.422412 0.634313,-0.504669 2.866633,-2.331731 4.960713,-4.060137 z m 183.02903,-1.290779 c 2.19157,-2.583129 3.98468,-4.914695 3.98468,-5.181259 0,-0.393109 -4.89116,-4.679558 -9.01062,-7.8966 -0.73315,-0.572549 -1.39371,-0.0025 -4.86971,4.202339 -2.21184,2.675607 -4.02151,5.007095 -4.02151,5.181083 0,0.298622 9.42167,8.391035 9.76934,8.391035 0.0897,0 1.95626,-2.11347 4.14782,-4.696598 z M 83.578082,46.06291 c 0.941158,-0.753934 1.711202,-1.53233 1.711209,-1.729767 8e-6,-0.197437 -1.937178,-2.685267 -4.304858,-5.528512 -2.36768,-2.843243 -4.370502,-5.257122 -4.450717,-5.364174 -0.267248,-0.35667 -5.165256,3.50585 -7.555082,5.957864 -2.765788,2.837757 -2.919891,2.330657 2.738129,9.010085 l 3.728884,4.402033 3.210623,-2.688369 c 1.765843,-1.478603 3.980658,-3.305225 4.921812,-4.05916 z m 227.282058,0.423924 c 2.19671,-2.632763 3.99401,-4.97092 3.99401,-5.195899 0,-0.402392 -9.22423,-8.445626 -9.68571,-8.445626 -0.13015,0 -2.13574,2.283614 -4.45697,5.074697 l -4.22042,5.074696 4.83772,4.123004 c 2.66075,2.26765 4.99514,4.130421 5.18755,4.139488 0.1924,0.0091 2.14713,-2.137595 4.34382,-4.77036 z m 23.76285,-2.858811 4.43334,-5.254202 -3.08222,-2.895887 c -1.69521,-1.592738 -4.04187,-3.433668 -5.21479,-4.090955 l -2.13259,-1.195067 -4.52034,5.301612 -4.52034,5.301615 4.87377,4.153001 c 2.68058,2.28415 5.06639,4.103744 5.3018,4.043544 0.23543,-0.06021 2.42304,-2.47385 4.86137,-5.363661 z m -198.12977,0.946985 c 0.87798,-0.970146 0.74221,-1.114741 -3.97657,-4.235327 -6.94217,-4.590936 -7.4051,-4.583539 -3.51584,0.05618 1.87686,2.239016 3.76789,4.509953 4.20227,5.046525 0.86176,1.064499 1.75491,0.829041 3.29014,-0.867379 z m -20.47981,-4.154661 c 2.64898,-2.20468 4.86648,-4.159404 4.92778,-4.343831 0.0613,-0.184425 -0.43596,-1.005057 -1.10501,-1.823627 -0.85993,-1.052095 -2.55897,-1.939439 -5.79693,-3.027519 -2.51926,-0.846566 -4.9837,-1.534338 -5.47655,-1.528381 -0.49284,0.006 -2.06437,1.032888 -3.49228,2.282072 l -2.59619,2.271245 4.17577,5.055188 c 2.29667,2.780354 4.25931,5.070528 4.36142,5.089277 0.10209,0.01875 2.353,-1.769743 5.00199,-3.974424 z m 157.9454,-0.760121 c 1.39862,-1.721084 2.38905,-3.129242 2.20096,-3.129242 -0.39563,0 -4.83299,2.945524 -6.18696,4.106907 -0.871,0.747118 -0.871,0.820709 0,1.482028 0.50409,0.382729 1.03499,0.689951 1.17978,0.68271 0.14478,-0.0073 1.40759,-1.42132 2.80622,-3.142403 z M 97.891817,33.888707 c 0.0188,-0.150103 -0.94296,-1.453252 -2.13712,-2.895887 -2.03966,-2.464039 -2.30286,-2.612896 -4.34383,-2.456692 -2.816888,0.215591 -10.01232,2.115212 -11.142589,2.941684 -0.780274,0.57055 -0.401217,1.208636 3.412595,5.744593 l 4.290366,5.102749 4.943248,-4.081767 c 2.71879,-2.244971 4.95858,-4.204578 4.97733,-4.35468 z m 200.621643,1.842294 4.2872,-5.012181 -1.68553,-1.437749 c -2.58092,-2.201553 -2.71177,-2.231135 -6.04452,-1.366553 -3.89363,1.010093 -10.7549,3.827 -10.7549,4.415449 0,0.469426 8.97677,8.342732 9.56238,8.386934 0.19151,0.01448 2.27743,-2.2292 4.63537,-4.9859 z m 22.88976,-1.828233 c 2.22697,-2.603873 3.92179,-4.94021 3.76626,-5.191859 -0.44325,-0.717185 -6.31003,-2.213896 -10.38446,-2.64925 l -3.69919,-0.395257 -1.80151,2.104651 c -0.99083,1.157561 -1.80151,2.278661 -1.80151,2.491335 0,0.337248 9.33101,8.374696 9.72252,8.374696 0.0818,0 1.97092,-2.130443 4.19789,-4.734316 z m -219.07062,-3.618306 1.44456,-1.507798 -2.72383,-0.361328 c -1.498103,-0.198731 -2.842383,-0.242773 -2.987283,-0.09788 -0.27575,0.275748 2.010643,3.395048 2.525613,3.445665 0.16301,0.01601 0.94643,-0.649377 1.74094,-1.478666 z m 203.44844,-3.230927 c 0.61072,-0.977916 0.52584,-1.053049 -1.18965,-1.053049 -2.06043,0 -2.28874,0.3386 -0.92588,1.373152 1.22254,0.928047 1.3479,0.90908 2.11553,-0.320103 z"
       id="path1129"
       inkscape:connector-curvature="0"
       sodipodi:nodetypes="sscccccccccccccssssccsssccssscsccccscsccssccccscccccccscscccscsccscsccccsccscscscscssccsccscccsscsccsccccccsssccscccsccssccssccscscsccsccccccscssccssssccccsssccscsccccccsccssccccccssccccccsccccccsccsccccccccccsccccccscccccccccccccsccccscsccccsscscccccscccsccsccscccsccssccsscsscsscccsccssscscscsscsccccssssccscscsccscssccscssssccccscccscccccscsccsccccccccccscssscccscccsccccssccccssscscscscsccsscscscssccscsscccscsccsccccscscscscsccccscccccscscscscscscccscscsccsscscsccsssscccssscccssscscsssccccsccscssccccssscsssscsssccsccccsscscscscssccccsccccscccscccsssscsccscssccscssccssccscccsccccccsccscssssscsssccccscssscsccsssssssccccccccsccscccssccsccsscsccccssscscsccssccccsscscccsscsscsssscccccssccscscscccscssscccscsccsccssscccscscscccsscscssscccscccsccscscsccssscssccccccccscscccccscsscsscscsssccssscsscsscscsssscscsccsccccsccsssssscsscscscscscscccsssscscsccsscsscsccsssccsccccscc" />
  </g>
</svg>
